<?xml version="1.0" encoding="UTF-8"?>
<svg version="1.1" xmlns="http://www.w3.org/2000/svg" width="512" height="512">
<path d="M0 0 C6.95549538 4.09146787 10.63354571 7.67555448 13.55859375 15.3125 C14.1875 17.875 14.1875 17.875 14.1875 23.875 C19.7975 23.875 25.4075 23.875 31.1875 23.875 C31.290625 22.51375 31.39375 21.1525 31.5 19.75 C32.2668523 13.03741619 35.10418519 7.4218846 40.1875 2.875 C46.93385964 -1.69784628 54.25708742 -2.0987342 62.1875 -1.125 C68.42161174 0.59090372 72.70191023 4.52174218 76.1875 9.875 C78.75356134 14.88124043 79.1875 18.07703056 79.1875 23.875 C84.4675 23.545 89.7475 23.215 95.1875 22.875 C95.39375 21.39 95.6 19.905 95.8125 18.375 C97.1891435 11.48201906 100.68405776 7.25327012 105.6875 2.5 C112.09092195 -1.66222427 118.73604894 -1.89076177 126.1875 -1.125 C132.92399767 0.67595877 137.19966666 5.35849722 141.1875 10.875 C143.41691899 15.0298263 143.47359198 17.87764384 144.1875 22.875 C149.4675 22.875 154.7475 22.875 160.1875 22.875 C160.538125 21.06 160.88875 19.245 161.25 17.375 C163.12262145 9.85788926 166.65795378 5.41955658 172.875 0.9375 C179.17331188 -1.95631897 186.8262924 -2.27965361 193.50390625 -0.51171875 C199.77372784 2.27350532 204.35392094 7.45787539 207.5625 13.4375 C208.36339518 16.5609912 208.81101183 19.67485053 209.1875 22.875 C209.86296875 22.90078125 210.5384375 22.9265625 211.234375 22.953125 C212.57242188 23.03820312 212.57242188 23.03820312 213.9375 23.125 C214.81921875 23.17140625 215.7009375 23.2178125 216.609375 23.265625 C220.07686295 24.08521306 221.07367539 24.98329602 223.1875 27.875 C223.78358797 31.04337903 223.70949114 34.17586839 223.66851807 37.39141846 C223.67193577 38.36672162 223.67535347 39.34202478 223.67887473 40.34688258 C223.68547753 43.6238041 223.66343736 46.89991142 223.64160156 50.17675781 C223.64047361 52.52214539 223.64110593 54.86753439 223.64337158 57.21292114 C223.64452167 63.58863711 223.62096429 69.96405354 223.59307575 76.33969975 C223.57063953 82.32503112 223.56658536 88.31036265 223.56246826 94.29572806 C223.55371356 106.1509847 223.5270933 118.00613126 223.48925781 129.86132812 C223.45254222 141.37759856 223.42422827 152.8938391 223.40722656 164.41015625 C223.40617567 165.1200103 223.40512477 165.82986436 223.40404204 166.56122914 C223.39882189 170.12235537 223.39376706 173.68348182 223.38879442 177.2446084 C223.34732696 206.78814333 223.27657646 236.33156973 223.1875 265.875 C223.74041592 265.87223462 224.29333183 265.86946924 224.86300278 265.86662006 C238.31683717 265.80036624 251.77064299 265.75091389 265.22460556 265.71956348 C271.73085347 265.70389388 278.23698382 265.68263172 284.74316406 265.64868164 C291.01956593 265.61613477 297.29585456 265.59815675 303.57233429 265.59036827 C305.96938103 265.58481639 308.36642144 265.57397522 310.7634201 265.55780983 C314.11552931 265.53609807 317.46716796 265.53303051 320.81933594 265.53442383 C322.31258392 265.51824509 322.31258392 265.51824509 323.83599854 265.5017395 C324.75022583 265.50586349 325.66445313 265.50998749 326.60638428 265.51423645 C327.39912624 265.51147107 328.19186821 265.50870569 329.00863266 265.50585651 C331.78470666 265.97617869 333.14607305 266.96141133 335.1875 268.875 C338.29578367 278.19985102 335.40432873 289.43082233 331.81640625 298.2421875 C324.18968412 313.49563176 312.193118 324.23090493 296.53515625 330.83203125 C287.1486858 333.75640419 277.98175175 334.15209397 268.20703125 334.0703125 C266.91302902 334.0674826 265.61902679 334.06465271 264.28581238 334.06173706 C260.88446997 334.05418596 257.48330477 334.03461345 254.08203125 334.0123291 C250.59572749 333.99168436 247.10939445 333.98269597 243.62304688 333.97265625 C236.8111262 333.95135729 229.99932166 333.91732763 223.1875 333.875 C223.20844727 334.97489258 223.22939453 336.07478516 223.25097656 337.20800781 C223.32343635 341.29299881 223.36932115 345.37793314 223.40722656 349.46337891 C223.4273285 351.23072872 223.45461472 352.99801213 223.48925781 354.76513672 C223.53784009 357.30713285 223.56048226 359.84824896 223.578125 362.390625 C223.59877014 363.17930969 223.61941528 363.96799438 223.64068604 364.78057861 C223.64199335 367.9846269 223.52639937 370.33292004 221.80678558 373.08349514 C217.6980909 375.89370665 213.69272385 375.4297325 208.8248291 375.3896637 C207.7584265 375.39660922 206.6920239 375.40355475 205.59330606 375.41071075 C202.00795692 375.42905616 198.42326383 375.4186951 194.83789062 375.40844727 C192.27238976 375.41550185 189.70689305 375.42424491 187.1414032 375.43455505 C180.88938039 375.45476508 174.63760142 375.45606391 168.38555849 375.44792951 C163.30510154 375.44163341 158.22469771 375.44276293 153.14424133 375.44920158 C152.4215689 375.45010324 151.69889647 375.45100489 150.95432487 375.45193387 C149.48629692 375.45378504 148.01826898 375.4556476 146.55024105 375.45752143 C132.7797805 375.47410573 119.00942236 375.46537518 105.23896796 375.44853585 C92.63534151 375.43383634 80.03195341 375.44846959 67.42835766 375.47730602 C54.4918037 375.50668421 41.5553598 375.51767706 28.61877394 375.50812382 C27.1561022 375.50710124 25.69343044 375.50610664 24.23075867 375.5051403 C23.51106869 375.50466391 22.79137871 375.50418752 22.04987994 375.5036967 C16.97464262 375.50153058 11.89950929 375.51134704 6.82429504 375.52591133 C-0.00479517 375.54523508 -6.83337087 375.53838168 -13.66246605 375.51371193 C-16.17315128 375.50868556 -18.68387004 375.5122407 -21.19452858 375.52486038 C-24.61347981 375.54069004 -28.03094913 375.52593365 -31.4498291 375.50318909 C-32.45098676 375.51502482 -33.45214442 375.52686054 -34.48364019 375.53905493 C-41.17398788 375.44819339 -41.17398788 375.44819339 -44.4301033 372.52517319 C-46.12705876 369.27196384 -46.29551177 367.09674125 -46.26660156 363.43237305 C-46.26629944 362.15142258 -46.26599731 360.87047211 -46.26568604 359.55070496 C-46.24526253 358.16270316 -46.2243986 356.77470778 -46.203125 355.38671875 C-46.19565903 353.95897719 -46.18996778 352.53122534 -46.18597412 351.10346985 C-46.17074547 347.35659189 -46.13148877 343.61034009 -46.0871582 339.8637085 C-46.04614496 336.03617828 -46.02795027 332.20854628 -46.0078125 328.38085938 C-45.96499077 320.87862165 -45.89677436 313.37689876 -45.8125 305.875 C-47.05862061 305.89071045 -48.30474121 305.9064209 -49.58862305 305.92260742 C-54.21974198 305.97698073 -58.85083278 306.01137711 -63.48217773 306.03979492 C-65.48515572 306.05486465 -67.4881008 306.0753241 -69.4909668 306.10131836 C-72.37296681 306.13778127 -75.25452984 306.15474461 -78.13671875 306.16796875 C-79.02961105 306.18345261 -79.92250336 306.19893646 -80.842453 306.21488953 C-85.64723067 306.21618487 -88.93530859 306.05691753 -92.8125 302.875 C-96.97225655 294.55548691 -91.0930527 277.40606983 -89.46118164 268.54541016 C-89.11216683 266.62300697 -88.76373372 264.7004981 -88.41583252 262.77789307 C-87.47279067 257.575704 -86.52165782 252.37502388 -85.56904531 247.1745801 C-84.56131467 241.66521764 -83.56116986 236.15447813 -82.56016541 230.64389038 C-80.65430413 220.15846228 -78.7417452 209.67426755 -76.82674354 199.19050539 C-74.26735305 185.17695327 -71.71792735 171.16158884 -69.1685245 157.14621687 C-66.92369387 144.80571333 -64.67556464 132.46583657 -62.41616821 120.12799072 C-61.63407413 115.85523967 -60.85229322 111.58243145 -60.07080078 107.30957031 C-59.88266036 106.28104084 -59.69451994 105.25251138 -59.5006783 104.19281435 C-57.25800935 91.92289016 -55.05444642 79.64751002 -52.93131602 67.35632539 C-52.14013991 62.78504348 -51.33760258 58.2157354 -50.5382061 53.64588547 C-49.95634153 50.28002461 -49.39579378 46.9111139 -48.83668518 43.54141235 C-48.49820301 41.59952934 -48.15875925 39.65781355 -47.81811523 37.71630859 C-47.61963014 36.44941004 -47.61963014 36.44941004 -47.41713524 35.15691757 C-46.48412323 30.0092526 -45.16665959 27.15270392 -40.8125 23.875 C-37 23.5625 -37 23.5625 -33.8125 23.875 C-33.80992188 23.25753906 -33.80734375 22.64007813 -33.8046875 22.00390625 C-33.48154793 14.92714973 -31.63320768 10.1198472 -26.8125 4.875 C-18.77106827 -1.48228282 -9.88286823 -2.9162562 0 0 Z M-15.125 16.5625 C-17.21988061 19.09363146 -17.21988061 19.09363146 -17.8125 23.875 C-12.5325 23.875 -7.2525 23.875 -1.8125 23.875 C-3.25062656 18.33882701 -3.25062656 18.33882701 -6.8125 14.875 C-10.45744732 14.33213551 -12.11921544 14.36908964 -15.125 16.5625 Z M49.875 16.5625 C47.78011939 19.09363146 47.78011939 19.09363146 47.1875 23.875 C52.4675 23.875 57.7475 23.875 63.1875 23.875 C61.74937344 18.33882701 61.74937344 18.33882701 58.1875 14.875 C54.54255268 14.33213551 52.88078456 14.36908964 49.875 16.5625 Z M112.1875 19.875 C112.1875 21.195 112.1875 22.515 112.1875 23.875 C117.1375 23.875 122.0875 23.875 127.1875 23.875 C126.80895529 18.19449112 126.80895529 18.19449112 124.4375 16 C118.76183364 13.16216682 115.96651219 15.12424182 112.1875 19.875 Z M177.1875 19.875 C177.1875 21.195 177.1875 22.515 177.1875 23.875 C182.1375 23.875 187.0875 23.875 192.1875 23.875 C191.80895529 18.19449112 191.80895529 18.19449112 189.4375 16 C183.76183364 13.16216682 180.96651219 15.12424182 177.1875 19.875 Z M-29.8125 39.875 C-29.85776295 69.60834213 -29.89354631 99.34168044 -29.91463066 129.07504956 C-29.91713191 132.58958388 -29.91972057 136.10411813 -29.92236328 139.61865234 C-29.9228879 140.31829909 -29.92341252 141.01794584 -29.92395304 141.738794 C-29.93264304 153.05035262 -29.94840525 164.36189081 -29.96680559 175.67343733 C-29.98554379 187.29002191 -29.99647541 198.90659461 -30.00067699 210.5231936 C-30.0032808 217.04388193 -30.00938666 223.56452397 -30.02396011 230.08519745 C-30.03757713 236.22793834 -30.0417143 242.37061406 -30.03871536 248.51336861 C-30.03926368 250.76268684 -30.04321646 253.01200735 -30.05091095 255.26131248 C-30.30221474 281.69690094 -30.30221474 281.69690094 -17.62890625 304.2890625 C-8.20195378 312.51990703 3.53245655 318.25560281 16.1875 317.875 C29.14746127 316.51354952 41.07401704 312.74412351 50.1875 302.875 C55.32017037 296.44056541 58.36789214 289.4112537 60.921875 281.640625 C63.02058239 275.43777872 65.91720952 272.2951866 71.55493164 268.76849365 C77.22215751 266.01881689 82.9338565 266.30316424 89.12109375 266.32910156 C90.42055435 266.31870724 91.72001495 266.30831291 93.05885315 266.29760361 C96.5537077 266.27004107 100.04820438 266.26608772 103.54315186 266.26724243 C106.83028978 266.26468858 110.1172416 266.24055262 113.40429688 266.21826172 C122.99860397 266.16563902 132.59307472 266.14739126 142.1875 266.125 C163.6375 266.0425 185.0875 265.96 207.1875 265.875 C207.1875 193.275 207.1875 120.675 207.1875 45.875 C204.7125 48.35 204.7125 48.35 202.1875 50.875 C196.12997318 56.5102473 191.65227871 58.07706364 183.4921875 58.23828125 C180.7137989 57.80033186 179.87847973 57.07855796 178.1875 54.875 C177.06234808 51.82101623 177.02960423 50.3486873 178.0625 47.25 C180.79859027 44.19201675 183.32774254 43.57911079 187.2265625 42.55078125 C189.38524662 42.06276626 189.38524662 42.06276626 190.1875 39.875 C174.6775 39.875 159.1675 39.875 143.1875 39.875 C141.8675 42.845 140.5475 45.815 139.1875 48.875 C135.83356297 52.86905225 131.36804072 56.76488413 126.1875 57.875 C117.18794663 58.65883207 117.18794663 58.65883207 114.4375 56.50390625 C112.70869657 54.25105928 112.32258377 52.71175925 112.1875 49.875 C113.0625 47.25 113.0625 47.25 115.1875 44.875 C117.50710987 43.90293327 119.7953123 43.19203332 122.2265625 42.55078125 C124.38524662 42.06276626 124.38524662 42.06276626 125.1875 39.875 C110.0075 39.875 94.8275 39.875 79.1875 39.875 C77.2075 43.505 75.2275 47.135 73.1875 50.875 C68.94114157 55.23023942 64.1281995 57.70180091 58.0703125 58.05859375 C55.10301158 58.06208469 52.15166007 58.00641596 49.1875 57.875 C48.0029869 54.32146071 47.92108106 51.60486522 48.1875 47.875 C50.21467859 45.26233194 52.20884273 44.31460336 55.3125 43.3125 C57.40228269 42.67079349 57.40228269 42.67079349 59.1875 41.875 C59.5175 41.215 59.8475 40.555 60.1875 39.875 C44.6775 39.875 29.1675 39.875 13.1875 39.875 C12.1975 42.515 11.2075 45.155 10.1875 47.875 C6.41105991 53.14214013 2.62790169 56.63862271 -3.8125 57.875 C-5.89484592 57.94243348 -7.97918557 57.96014472 -10.0625 57.9375 C-11.14015625 57.92847656 -12.2178125 57.91945313 -13.328125 57.91015625 C-14.14796875 57.89855469 -14.9678125 57.88695312 -15.8125 57.875 C-16.9970131 54.32146071 -17.07891894 51.60486522 -16.8125 47.875 C-14.78532141 45.26233194 -12.79115727 44.31460336 -9.6875 43.3125 C-7.59771731 42.67079349 -7.59771731 42.67079349 -5.8125 41.875 C-5.4825 41.215 -5.1525 40.555 -4.8125 39.875 C-13.0625 39.875 -21.3125 39.875 -29.8125 39.875 Z M-46.8125 125.875 C-50.59789517 146.66655223 -54.37928527 167.45882928 -58.15589142 188.25197983 C-59.90947557 197.9062901 -61.66437608 207.56035763 -63.42236328 217.21386719 C-64.9543836 225.6265598 -66.48394666 234.0396948 -68.0105443 242.45337319 C-68.81916185 246.90949081 -69.62901921 251.36537514 -70.44181824 255.82073212 C-71.2065305 260.01272112 -71.9679602 264.20529295 -72.72685814 268.39833832 C-73.00620986 269.93848714 -73.28676821 271.47841765 -73.56861305 273.01811218 C-73.95283392 275.11808977 -74.33273075 277.21880513 -74.71154785 279.31976318 C-75.03233181 281.08407495 -75.03233181 281.08407495 -75.35959625 282.88402939 C-75.91231131 286.02997486 -75.91231131 286.02997486 -75.8125 289.875 C-65.9125 289.875 -56.0125 289.875 -45.8125 289.875 C-45.8125 235.755 -45.8125 181.635 -45.8125 125.875 C-46.1425 125.875 -46.4725 125.875 -46.8125 125.875 Z M76.1875 284.875 C75.13721056 287.48706932 75.13721056 287.48706932 74.3125 290.4375 C71.12620336 300.35440078 67.2197333 307.37147382 59.98046875 314.94140625 C58.07417674 316.55771917 58.07417674 316.55771917 58.1875 317.875 C86.16042276 317.89837597 114.13334404 317.91600226 142.1062746 317.92681217 C155.09502298 317.93196514 168.08376529 317.93898882 181.07250977 317.95043945 C192.39547597 317.9604168 203.71843777 317.9668607 215.04140824 317.96908849 C221.03499438 317.97039041 227.02856794 317.97344346 233.02215004 317.98073006 C238.66830593 317.9875384 244.3144441 317.98960718 249.96060371 317.98810768 C252.02812039 317.98838185 254.09563768 317.99035832 256.16315079 317.99420547 C281.10778247 318.31918533 281.10778247 318.31918533 303.1875 307.875 C304.05375 307.2975 304.92 306.72 305.8125 306.125 C312.26198912 300.01495768 316.57175911 292.32335566 319.1875 283.875 C319.1875 283.215 319.1875 282.555 319.1875 281.875 C288.66399731 281.80660443 258.1405121 281.75349282 227.61695112 281.72180401 C224.01571143 281.71805176 220.41447189 281.71416881 216.81323242 281.71020508 C216.09627181 281.70941815 215.37931119 281.70863122 214.6406245 281.70782044 C203.02227957 281.69475631 191.40397904 281.67109695 179.78566047 281.64354161 C167.86966799 281.61551538 155.95369881 281.59882965 144.03767473 281.59273452 C137.34231171 281.58898275 130.64704139 281.57993767 123.95171165 281.55780983 C117.65549321 281.53751399 111.35941752 281.5311522 105.06316948 281.53567696 C102.74717687 281.53484866 100.43117971 281.52884216 98.1152153 281.51738358 C94.96316285 281.5025476 91.81165567 281.5060139 88.65959167 281.51423645 C87.27195807 281.50112866 87.27195807 281.50112866 85.85629147 281.48775607 C84.59330935 281.49671579 84.59330935 281.49671579 83.30481243 281.50585651 C82.21292662 281.50414777 82.21292662 281.50414777 81.09898251 281.50240451 C78.61221507 281.98713734 77.74834611 282.91619088 76.1875 284.875 Z M-29.8125 314.875 C-29.8125 329.395 -29.8125 343.915 -29.8125 358.875 C48.3975 358.875 126.6075 358.875 207.1875 358.875 C207.1875 350.625 207.1875 342.375 207.1875 333.875 C203.50116394 333.86953156 203.50116394 333.86953156 199.74035645 333.86395264 C176.55261379 333.8276643 153.36499992 333.7694014 130.17736053 333.69109726 C118.25707284 333.65136686 106.33685058 333.61894393 94.41650391 333.60400391 C84.02108537 333.59095626 73.6258112 333.56391236 63.230474 333.52038693 C57.73133009 333.49784208 52.23236377 333.48208512 46.73316956 333.48311615 C41.5456521 333.4838669 36.35852619 333.46575087 31.17111015 333.43383217 C29.2782565 333.42538913 27.38535863 333.42354467 25.49249458 333.42919731 C6.03058713 333.47952598 -10.49721064 330.4125537 -25.78125 317.546875 C-27.70806783 315.83425222 -27.70806783 315.83425222 -29.8125 314.875 Z " fill="#000000" transform="translate(134.8125,70.125)"/>
<path d="M0 0 C1.00853027 -0.00700928 2.01706055 -0.01401855 3.05615234 -0.02124023 C6.39188114 -0.03885406 9.72676248 -0.02718497 13.0625 -0.01367188 C15.37890791 -0.0163658 17.69531472 -0.02024739 20.01171875 -0.02526855 C24.86729698 -0.03116822 29.72258096 -0.02258526 34.578125 -0.00390625 C40.80614646 0.01888316 47.03347845 0.00576265 53.26147461 -0.01819611 C58.04497485 -0.0326412 62.82831127 -0.02805393 67.61181641 -0.01768494 C69.90836671 -0.0150141 72.20493183 -0.01829988 74.50146484 -0.02760315 C77.7097114 -0.03774714 80.91683706 -0.02229671 84.125 0 C85.55271729 -0.01214539 85.55271729 -0.01214539 87.00927734 -0.02453613 C93.44599879 0.05845714 93.44599879 0.05845714 96.62890625 2.42883301 C98.13633122 4.62515016 98.90142146 5.85978214 99.0625 8.51757812 C98.3260511 11.26252402 97.49857697 13.03630877 95.58909607 15.14367676 C91.63364239 17.29455607 87.75790572 16.95144752 83.32446289 16.9375 C81.84333763 16.95020432 81.84333763 16.95020432 80.33229065 16.96316528 C77.06644837 16.98657509 73.80107611 16.98755649 70.53515625 16.98632812 C68.2659842 16.99342716 65.99681395 17.00112577 63.72764587 17.00939941 C58.97047944 17.02285331 54.21347898 17.0244088 49.45629883 17.01855469 C43.35833395 17.01265714 37.26116484 17.04324905 31.16335392 17.08367157 C26.47675786 17.10951309 21.79035431 17.11242919 17.10369682 17.10877991 C14.85540199 17.1104744 12.60709857 17.12014839 10.35887337 17.13792419 C7.21534998 17.16004355 4.07344917 17.15044691 0.92993164 17.1328125 C0.00041687 17.14607574 -0.9290979 17.15933899 -1.88677979 17.17300415 C-6.37175134 17.11450418 -8.33570425 16.96982858 -12.01905823 14.20178223 C-14.53257542 10.6849733 -14.63037531 8.75181613 -13.9375 4.51757812 C-10.49469197 -0.7961274 -5.72477587 -0.04869985 0 0 Z " fill="#000000" transform="translate(179.9375,193.482421875)"/>
<path d="M0 0 C0.98916916 -0.00394272 1.97833832 -0.00788544 2.9974823 -0.01194763 C6.26308024 -0.01865376 9.52727656 0.01049613 12.79272461 0.04077148 C15.06285837 0.04502197 17.33299647 0.0473502 19.60313416 0.0478363 C24.35867026 0.05400125 29.11373528 0.07670083 33.86914062 0.11230469 C39.96807101 0.15760259 46.06657493 0.17233204 52.165658 0.1760416 C56.85221064 0.18046802 61.53867358 0.19576767 66.2251873 0.21491814 C68.47428079 0.22380352 70.72338386 0.23053198 72.97249031 0.23507881 C76.11333466 0.24411147 79.25379165 0.26649361 82.39453125 0.29296875 C83.32607025 0.29363342 84.25760925 0.2942981 85.21737671 0.29498291 C86.07389328 0.30495804 86.93040985 0.31493317 87.81288147 0.32521057 C88.92588418 0.33218633 88.92588418 0.33218633 90.0613718 0.33930302 C92.50513315 0.64614497 94.06951177 1.2548878 96.13256836 2.59936523 C97.96323661 6.73826736 98.47188245 8.68321719 96.88256836 12.97436523 C95.13256836 15.59936523 95.13256836 15.59936523 93.13256836 16.59936523 C91.74809667 16.70139826 90.35892274 16.74308578 88.97073364 16.75326538 C88.09869293 16.76186584 87.22665222 16.77046631 86.32818604 16.77932739 C85.36918396 16.78358734 84.41018188 16.78784729 83.42211914 16.79223633 C81.90976181 16.80450256 81.90976181 16.80450256 80.36685181 16.8170166 C77.02053427 16.84189003 73.67425914 16.85838992 70.32788086 16.87280273 C69.18732113 16.87812641 68.0467614 16.88345009 66.87163925 16.88893509 C60.83704042 16.91567266 54.80246234 16.93504734 48.76782227 16.94946289 C42.52404585 16.96612976 36.28079532 17.01092341 30.03721809 17.06183434 C25.24518196 17.0954283 20.45327198 17.10703163 15.661129 17.11268997 C13.35895637 17.11942209 11.05679259 17.13469457 8.75473404 17.15858078 C5.53665031 17.19007155 2.32000291 17.19029313 -0.89819336 17.18286133 C-1.85314697 17.19926666 -2.80810059 17.215672 -3.79199219 17.23257446 C-10.23710773 17.17148893 -10.23710773 17.17148893 -13.45535278 14.25039673 C-15.20559524 10.96449818 -15.55541964 9.26863457 -14.86743164 5.59936523 C-10.63153119 -0.25189614 -6.68030022 -0.10661209 0 0 Z " fill="#000000" transform="translate(180.867431640625,279.400634765625)"/>
<path d="M0 0 C0.98916916 -0.00394272 1.97833832 -0.00788544 2.9974823 -0.01194763 C6.26308024 -0.01865376 9.52727656 0.01049613 12.79272461 0.04077148 C15.06285837 0.04502197 17.33299647 0.0473502 19.60313416 0.0478363 C24.35867026 0.05400125 29.11373528 0.07670083 33.86914062 0.11230469 C39.96807101 0.15760259 46.06657493 0.17233204 52.165658 0.1760416 C56.85221064 0.18046802 61.53867358 0.19576767 66.2251873 0.21491814 C68.47428079 0.22380352 70.72338386 0.23053198 72.97249031 0.23507881 C76.11333466 0.24411147 79.25379165 0.26649361 82.39453125 0.29296875 C83.32607025 0.29363342 84.25760925 0.2942981 85.21737671 0.29498291 C86.07389328 0.30495804 86.93040985 0.31493317 87.81288147 0.32521057 C88.92588418 0.33218633 88.92588418 0.33218633 90.0613718 0.33930302 C92.50513315 0.64614497 94.06951177 1.2548878 96.13256836 2.59936523 C97.96323661 6.73826736 98.47188245 8.68321719 96.88256836 12.97436523 C95.13256836 15.59936523 95.13256836 15.59936523 93.13256836 16.59936523 C91.74809667 16.70139826 90.35892274 16.74308578 88.97073364 16.75326538 C88.09869293 16.76186584 87.22665222 16.77046631 86.32818604 16.77932739 C85.36918396 16.78358734 84.41018188 16.78784729 83.42211914 16.79223633 C81.90976181 16.80450256 81.90976181 16.80450256 80.36685181 16.8170166 C77.02053427 16.84189003 73.67425914 16.85838992 70.32788086 16.87280273 C69.18732113 16.87812641 68.0467614 16.88345009 66.87163925 16.88893509 C60.83704042 16.91567266 54.80246234 16.93504734 48.76782227 16.94946289 C42.52404585 16.96612976 36.28079532 17.01092341 30.03721809 17.06183434 C25.24518196 17.0954283 20.45327198 17.10703163 15.661129 17.11268997 C13.35895637 17.11942209 11.05679259 17.13469457 8.75473404 17.15858078 C5.53665031 17.19007155 2.32000291 17.19029313 -0.89819336 17.18286133 C-1.85314697 17.19926666 -2.80810059 17.215672 -3.79199219 17.23257446 C-10.23710773 17.17148893 -10.23710773 17.17148893 -13.45535278 14.25039673 C-15.20559524 10.96449818 -15.55541964 9.26863457 -14.86743164 5.59936523 C-10.63153119 -0.25189614 -6.68030022 -0.10661209 0 0 Z " fill="#000000" transform="translate(180.867431640625,236.400634765625)"/>
<path d="M0 0 C0.98916916 -0.00394272 1.97833832 -0.00788544 2.9974823 -0.01194763 C6.26308024 -0.01865376 9.52727656 0.01049613 12.79272461 0.04077148 C15.06285837 0.04502197 17.33299647 0.0473502 19.60313416 0.0478363 C24.35867026 0.05400125 29.11373528 0.07670083 33.86914062 0.11230469 C39.96807101 0.15760259 46.06657493 0.17233204 52.165658 0.1760416 C56.85221064 0.18046802 61.53867358 0.19576767 66.2251873 0.21491814 C68.47428079 0.22380352 70.72338386 0.23053198 72.97249031 0.23507881 C76.11333466 0.24411147 79.25379165 0.26649361 82.39453125 0.29296875 C83.32607025 0.29363342 84.25760925 0.2942981 85.21737671 0.29498291 C86.07389328 0.30495804 86.93040985 0.31493317 87.81288147 0.32521057 C88.92588418 0.33218633 88.92588418 0.33218633 90.0613718 0.33930302 C92.50513315 0.64614497 94.06951177 1.2548878 96.13256836 2.59936523 C97.96323661 6.73826736 98.47188245 8.68321719 96.88256836 12.97436523 C95.13256836 15.59936523 95.13256836 15.59936523 93.13256836 16.59936523 C91.74809667 16.70139826 90.35892274 16.74308578 88.97073364 16.75326538 C88.09869293 16.76186584 87.22665222 16.77046631 86.32818604 16.77932739 C85.36918396 16.78358734 84.41018188 16.78784729 83.42211914 16.79223633 C81.90976181 16.80450256 81.90976181 16.80450256 80.36685181 16.8170166 C77.02053427 16.84189003 73.67425914 16.85838992 70.32788086 16.87280273 C69.18732113 16.87812641 68.0467614 16.88345009 66.87163925 16.88893509 C60.83704042 16.91567266 54.80246234 16.93504734 48.76782227 16.94946289 C42.52404585 16.96612976 36.28079532 17.01092341 30.03721809 17.06183434 C25.24518196 17.0954283 20.45327198 17.10703163 15.661129 17.11268997 C13.35895637 17.11942209 11.05679259 17.13469457 8.75473404 17.15858078 C5.53665031 17.19007155 2.32000291 17.19029313 -0.89819336 17.18286133 C-1.85314697 17.19926666 -2.80810059 17.215672 -3.79199219 17.23257446 C-10.23710773 17.17148893 -10.23710773 17.17148893 -13.45535278 14.25039673 C-15.20559524 10.96449818 -15.55541964 9.26863457 -14.86743164 5.59936523 C-10.63153119 -0.25189614 -6.68030022 -0.10661209 0 0 Z " fill="#000000" transform="translate(180.867431640625,149.400634765625)"/>
<path d="M0 0 C2.5 1.5625 2.5 1.5625 4 4 C4.5625 7.4375 4.5625 7.4375 4 11 C1.55401113 14.38121991 0.10703441 15.76936783 -4 16.625 C-8.10703441 15.76936783 -9.55401113 14.38121991 -12 11 C-12.62491523 7.04220351 -12.61006839 4.99136114 -10.5 1.5625 C-6.97873756 -0.63828902 -4.04560357 -0.80414661 0 0 Z " fill="#000000" transform="translate(323,194)"/>
<path d="M0 0 C4.10703441 0.85563217 5.55401113 2.24378009 8 5.625 C8.62491523 9.58279649 8.61006839 11.63363886 6.5 15.0625 C2.97873756 17.26328902 0.04560357 17.42914661 -4 16.625 C-6.5 15.0625 -6.5 15.0625 -8 12.625 C-8.5625 9.1875 -8.5625 9.1875 -8 5.625 C-5.55401113 2.24378009 -4.10703441 0.85563217 0 0 Z " fill="#000000" transform="translate(319,279.375)"/>
<path d="M0 0 C4.10703441 0.85563217 5.55401113 2.24378009 8 5.625 C8.62491523 9.58279649 8.61006839 11.63363886 6.5 15.0625 C2.97873756 17.26328902 0.04560357 17.42914661 -4 16.625 C-6.5 15.0625 -6.5 15.0625 -8 12.625 C-8.5625 9.1875 -8.5625 9.1875 -8 5.625 C-5.55401113 2.24378009 -4.10703441 0.85563217 0 0 Z " fill="#000000" transform="translate(319,236.375)"/>
<path d="M0 0 C4.10703441 0.85563217 5.55401113 2.24378009 8 5.625 C8.62491523 9.58279649 8.61006839 11.63363886 6.5 15.0625 C2.97873756 17.26328902 0.04560357 17.42914661 -4 16.625 C-6.5 15.0625 -6.5 15.0625 -8 12.625 C-8.5625 9.1875 -8.5625 9.1875 -8 5.625 C-5.55401113 2.24378009 -4.10703441 0.85563217 0 0 Z " fill="#000000" transform="translate(319,149.375)"/>
</svg>
